PathFileType	4	(X/Y/Z)	OpenSim_Sub05_CSStiffKnee_Gyro.trc
DataRate	CameraRate	NumFrames	NumMarkers	Units	OrigDataRate	OrigDataStartFrame	OrigNumFrames
100	100	24	8	m	100	9843	11248
Frame#	Time	torso_imu_offset_imu	pelvis_imu_offset_imu	tibia_r_imu_offset_imu	femur_r_imu_offset_imu	tibia_l_imu_offset_imu	femur_l_imu_offset_imu	toes_r_imu_offset_imu	toes_l_imu_offset_imu
				X1	Y1	Z1	X2	Y2	Z2	X3	Y3	Z3	X4	Y4	Z4	X5	Y5	Z5	X6	Y6	Z6	X7	Y7	Z7	X8		Y8	Z8	

9843	98.42000000	-0.53367105	-0.15499322	-0.18721567	0.16303123	-0.03595656	0.37375321	-1.19927063	0.47488671	2.87475589	0.79360233	0.37919620	1.06803857	0.22331109	-0.07453508	0.62168182	-0.09597889	-0.36704966	0.47569717	0.34899783	4.25102266	0.68078292	-0.11470168	-0.17892264	0.07604623
9844	98.43000000	-0.53640066	-0.18624498	-0.13399363	0.17910370	-0.03077043	0.35288332	-0.30913277	0.31079267	3.30828157	0.84003120	0.27735667	0.87603756	0.33152251	-0.04839176	0.60397613	-0.17032774	-0.34521803	0.48173596	0.31321554	4.56186933	0.80108091	-0.12390287	-0.17080582	0.09614542
9845	98.44000000	-0.51933080	-0.21359936	-0.11980308	0.18878522	-0.02685572	0.33006751	0.16627320	0.16310062	3.69948721	0.87983851	0.17649773	0.70917643	0.26414839	-0.02117826	0.64484991	-0.22254653	-0.33168834	0.49279236	0.16687064	4.72006029	0.85342696	-0.09294534	-0.15665169	0.10855598
9846	98.45000000	-0.50667875	-0.21783171	-0.10616407	0.20194442	-0.00570955	0.28193340	0.26585745	0.17889712	3.97235495	0.91309687	0.09762327	0.55583661	0.18309269	-0.00727596	0.64313348	-0.23194876	-0.31638922	0.49387072	0.11020352	4.86205752	0.86671350	-0.07867052	-0.15355642	0.11721265
9847	98.46000000	-0.48696469	-0.21363530	-0.09589139	0.19681946	0.04055766	0.25456091	0.34361263	0.37154042	4.22297349	0.94772261	0.03455345	0.42670803	0.16489084	-0.00565290	0.61303003	-0.29652704	-0.34286928	0.49788903	0.11944317	5.01836639	0.86938915	-0.04952970	-0.14317637	0.12360053
9848	98.47000000	-0.46070424	-0.21030557	-0.10471648	0.19565986	0.08429567	0.22704822	0.42030028	0.57845095	4.51115247	0.95005304	-0.05037194	0.31349841	0.13939007	-0.01295017	0.62147352	-0.29675470	-0.34882092	0.56511318	0.07050619	5.16713368	0.86551827	0.00182043	-0.13257111	0.12085846
9849	98.48000000	-0.42644924	-0.19274402	-0.11020117	0.20758061	0.13021092	0.20409783	0.28361998	0.68559477	4.76570263	0.88225297	-0.15460508	0.18632021	0.13339951	-0.02098628	0.63752239	-0.20987465	-0.31745043	0.64949663	-0.03353078	5.35555127	0.87053451	0.02765660	-0.10262983	0.11703424
9850	98.49000000	-0.39236967	-0.19469984	-0.10240357	0.22922785	0.18453116	0.17841422	0.12717003	0.69055233	4.98124813	0.73921507	-0.26694400	0.02819139	0.16136815	-0.03254883	0.63194740	-0.16921783	-0.32140013	0.71048117	-0.14078492	5.57560036	0.87854557	0.04382242	-0.06004696	0.11368722
9851	98.50000000	-0.37745420	-0.18338875	-0.10952553	0.26818926	0.22849582	0.13670593	0.28537314	0.57997830	5.15789549	0.52550086	-0.37626242	-0.15619339	0.20090716	-0.04184013	0.61963961	-0.15860580	-0.31929181	0.76518419	-0.04811064	5.82601168	0.89745682	0.04902322	-0.03309384	0.10453052
9852	98.51000000	-0.37311592	-0.15736879	-0.11792243	0.28631611	0.24132345	0.09738455	0.71345803	0.48279612	5.23811604	0.23914436	-0.47379031	-0.36412182	0.20413697	-0.04193100	0.60764376	-0.17183622	-0.30150525	0.79783121	0.15383212	5.91328480	0.98958502	0.04943694	-0.03720954	0.09541908
9853	98.52000000	-0.35561399	-0.14848073	-0.12198001	0.29153653	0.21007850	0.05131425	1.21640961	0.69144423	5.24249648	-0.12240656	-0.60981032	-0.56873746	0.17010410	-0.04085861	0.62389534	-0.19848605	-0.29014883	0.82321823	0.16629791	5.66183138	1.18050584	0.06570575	-0.06254738	0.08693417
9854	98.53000000	-0.32499586	-0.14030455	-0.12337477	0.29293626	0.14544741	0.00566085	1.40720217	1.11047883	5.19142581	-0.41140975	-0.78340439	-0.75044459	0.15532450	-0.03917418	0.64530438	-0.21124494	-0.28813094	0.85054064	0.08597261	5.19158405	1.44613110	0.09091054	-0.06820045	0.07261586
9855	98.54000000	-0.29746831	-0.12997583	-0.09786467	0.28604829	0.04404074	-0.03227200	0.87090460	1.41473456	4.98236468	-0.42956507	-0.90728185	-0.95171969	0.17430726	-0.04193253	0.65808551	-0.24368595	-0.30914130	0.85487322	0.07166677	4.62089365	1.68765074	0.10527684	-0.06110981	0.06186327
9856	98.55000000	-0.27448528	-0.10600199	-0.08668443	0.28434857	-0.09546985	-0.06175034	0.09770920	1.41983916	4.78040024	-0.14159708	-0.88542734	-1.18017252	0.22355709	-0.04334558	0.67510157	-0.28766128	-0.29976174	0.82643372	0.19672781	4.14828509	1.79674208	0.12145786	-0.05127718	0.07624019
9857	98.56000000	-0.24047794	-0.07563458	-0.11307123	0.31344467	-0.22041859	-0.08613303	-0.29521476	1.17245203	4.68733773	0.37569691	-0.76024528	-1.38798185	0.26941789	-0.03545577	0.77213494	-0.30516557	-0.27840211	0.79000752	0.47744348	4.00196825	1.73522696	0.12679560	-0.03375209	0.08864985
9858	98.57000000	-0.20928546	-0.06131344	-0.12518938	0.36075212	-0.25558468	-0.09521492	-0.31589990	0.90144696	4.37235634	1.09446607	-0.62969528	-1.49567558	0.32811097	-0.01964295	0.83853704	-0.25988820	-0.26658932	0.74695419	0.72654889	4.14754466	1.51329734	0.12063960	-0.03771959	0.09216053
9859	98.58000000	-0.20453560	-0.06500929	-0.10705761	0.37361024	-0.19132868	-0.08023041	-0.18893490	0.74143688	3.80583217	1.93309907	-0.41201699	-1.39679781	0.37531912	-0.02044441	0.87175742	-0.15733512	-0.24262686	0.71804383	0.60381347	4.24033147	1.17965469	0.12200900	-0.04789580	0.10466067
9860	98.59000000	-0.22800165	-0.07197166	-0.08370354	0.34048705	-0.09036160	-0.04410392	-0.04335913	0.63680553	3.27481937	2.37562442	-0.22148263	-1.04936241	0.36528081	-0.02324539	0.95096154	-0.07152318	-0.20061312	0.71161000	0.03781485	4.03042060	0.79232090	0.07744989	-0.08320671	0.13497592
9861	98.60000000	-0.24922804	-0.06975118	-0.07624386	0.28146804	-0.02568478	-0.00533851	-0.09293494	0.35829224	2.77720222	2.11101114	-0.27862598	-0.54225018	0.33277875	-0.01742966	1.01913016	0.02005048	-0.14484029	0.70799056	-0.61607687	3.54313752	0.41619123	0.03917867	-0.14559222	0.17721654
9862	98.61000000	-0.26235781	-0.05279836	-0.05238464	0.21995302	0.00860524	0.01782422	-0.49986260	-0.13221713	2.14380937	1.40942751	-0.51084470	-0.01806514	0.31231918	0.00186665	1.10483230	0.13038552	-0.11317935	0.69514550	-0.99154963	2.75174771	0.09950257	0.02999453	-0.20586689	0.20776717
9863	98.62000000	-0.26828196	-0.03017250	-0.01966956	0.15417236	0.05166009	0.03071325	-0.98965029	-0.43104197	1.42255979	0.46968631	-0.68783511	0.42462110	0.34393890	0.03145257	1.19200889	0.25375319	-0.11158292	0.67220482	-1.60452922	1.86784766	-0.11429287	0.01796556	-0.26840146	0.22669629
9864	98.63000000	-0.26770621	-0.01172939	-0.01944074	0.10827404	0.11809654	0.05111103	-1.48870873	-0.44404362	0.74750483	-0.50833051	-0.59360212	0.68385722	0.34565420	0.06112782	1.25717815	0.40214011	-0.12788684	0.64745224	-0.94387023	0.68438342	-0.70352846	-0.00128467	-0.33742316	0.24806930
9865	98.64000000	-0.27536470	0.01329004	-0.01831311	0.05683684	0.21206364	0.06737301	-1.65593190	-0.54198182	0.02190115	-1.16285600	-0.28139904	0.73895377	0.30200216	0.09063654	1.31469363	0.50212314	-0.13306995	0.65389486	1.10101850	-0.50694297	-1.34709730	-0.02741303	-0.41843704	0.27444626
9866	98.65000000	-0.28569587	0.05120009	-0.01576783	0.01869247	0.32064266	0.06189880	-1.42357666	-0.69220724	-0.75764053	-1.52801485	-0.04956049	0.72987657	0.24376429	0.11147827	1.38427796	0.53521935	-0.11863284	0.68410072	1.30288622	-1.43873390	-1.19761245	-0.04894673	-0.52532844	0.30699602
